<svg xmlns="http://www.w3.org/2000/svg" xmlns:xlink="http://www.w3.org/1999/xlink" width="180" zoomAndPan="magnify" viewBox="0 0 135 135.000003" height="180" preserveAspectRatio="xMidYMid meet" version="1.0"><defs><g/><clipPath id="cdadf19609"><path d="M 0.496094 0 L 134.503906 0 L 134.503906 134.007812 L 0.496094 134.007812 Z M 0.496094 0 " clip-rule="nonzero"/></clipPath></defs><g clip-path="url(#cdadf19609)"><path fill="#ffffff" d="M 0.496094 0 L 134.503906 0 L 134.503906 134.007812 L 0.496094 134.007812 Z M 0.496094 0 " fill-opacity="1" fill-rule="nonzero"/><path fill="#ffffff" d="M 0.496094 0 L 134.503906 0 L 134.503906 134.007812 L 0.496094 134.007812 Z M 0.496094 0 " fill-opacity="1" fill-rule="nonzero"/></g><g fill="#006080" fill-opacity="1"><g transform="translate(9.264026, 88.584577)"><g><path d="M 30.78125 -66.375 L 45.015625 -66.09375 C 49.765625 -66.09375 53.03125 -65.535156 54.8125 -64.421875 C 54.625 -62.703125 53.972656 -61.5625 52.859375 -61 C 51.753906 -60.445312 50.15625 -60.171875 48.0625 -60.171875 L 28.09375 -60.453125 C 23.039062 -60.453125 18.789062 -60.296875 15.34375 -59.984375 C 14.664062 -56.535156 14.328125 -51.578125 14.328125 -45.109375 L 14.421875 -40.953125 C 14.421875 -39.160156 14.390625 -37.25 14.328125 -35.21875 C 17.160156 -34.726562 20.859375 -34.484375 25.421875 -34.484375 L 36.421875 -34.578125 C 40.609375 -34.578125 43.007812 -34.359375 43.625 -33.921875 C 44.25 -33.492188 44.5625 -33.03125 44.5625 -32.53125 C 44.5625 -30.195312 41.570312 -29.03125 35.59375 -29.03125 L 14.609375 -29.671875 C 14.546875 -28.191406 14.484375 -25.664062 14.421875 -22.09375 C 14.296875 -14.632812 14.019531 -8.992188 13.59375 -5.171875 C 17.53125 -4.929688 20.363281 -4.8125 22.09375 -4.8125 C 23.820312 -4.8125 25.609375 -4.835938 27.453125 -4.890625 C 29.304688 -4.953125 32.757812 -5.140625 37.8125 -5.453125 C 42.863281 -5.765625 46.632812 -5.921875 49.125 -5.921875 C 51.625 -5.921875 53.332031 -5.75 54.25 -5.40625 C 55.175781 -5.070312 55.640625 -4.316406 55.640625 -3.140625 C 55.640625 -2.398438 55.441406 -1.890625 55.046875 -1.609375 C 54.648438 -1.335938 54.296875 -1.125 53.984375 -0.96875 C 53.671875 -0.8125 53.285156 -0.6875 52.828125 -0.59375 C 52.367188 -0.507812 51.96875 -0.4375 51.625 -0.375 C 51.289062 -0.3125 50.828125 -0.265625 50.234375 -0.234375 C 49.648438 -0.203125 49.1875 -0.171875 48.84375 -0.140625 C 48.507812 -0.109375 48.066406 -0.09375 47.515625 -0.09375 L 46.21875 -0.09375 C 34.132812 0.457031 26.398438 0.734375 23.015625 0.734375 C 12.847656 0.734375 7.765625 -0.679688 7.765625 -3.515625 C 7.640625 -9.242188 7.578125 -14.695312 7.578125 -19.875 C 7.578125 -36.945312 8.132812 -51.148438 9.25 -62.484375 C 10.539062 -64.515625 14.296875 -65.6875 20.515625 -66 C 24.398438 -66.25 27.820312 -66.375 30.78125 -66.375 Z M 30.78125 -66.375 "/></g></g></g><g fill="#006080" fill-opacity="1"><g transform="translate(67.497932, 88.584577)"><g><path d="M 30.78125 -66.375 L 45.015625 -66.09375 C 49.765625 -66.09375 53.03125 -65.535156 54.8125 -64.421875 C 54.625 -62.703125 53.972656 -61.5625 52.859375 -61 C 51.753906 -60.445312 50.15625 -60.171875 48.0625 -60.171875 L 28.09375 -60.453125 C 23.039062 -60.453125 18.789062 -60.296875 15.34375 -59.984375 C 14.664062 -56.535156 14.328125 -51.578125 14.328125 -45.109375 L 14.421875 -40.953125 C 14.421875 -39.160156 14.390625 -37.25 14.328125 -35.21875 C 17.160156 -34.726562 20.859375 -34.484375 25.421875 -34.484375 L 36.421875 -34.578125 C 40.609375 -34.578125 43.007812 -34.359375 43.625 -33.921875 C 44.25 -33.492188 44.5625 -33.03125 44.5625 -32.53125 C 44.5625 -30.195312 41.570312 -29.03125 35.59375 -29.03125 L 14.609375 -29.671875 C 14.546875 -28.191406 14.484375 -25.664062 14.421875 -22.09375 C 14.296875 -14.632812 14.019531 -8.992188 13.59375 -5.171875 C 17.53125 -4.929688 20.363281 -4.8125 22.09375 -4.8125 C 23.820312 -4.8125 25.609375 -4.835938 27.453125 -4.890625 C 29.304688 -4.953125 32.757812 -5.140625 37.8125 -5.453125 C 42.863281 -5.765625 46.632812 -5.921875 49.125 -5.921875 C 51.625 -5.921875 53.332031 -5.75 54.25 -5.40625 C 55.175781 -5.070312 55.640625 -4.316406 55.640625 -3.140625 C 55.640625 -2.398438 55.441406 -1.890625 55.046875 -1.609375 C 54.648438 -1.335938 54.296875 -1.125 53.984375 -0.96875 C 53.671875 -0.8125 53.285156 -0.6875 52.828125 -0.59375 C 52.367188 -0.507812 51.96875 -0.4375 51.625 -0.375 C 51.289062 -0.3125 50.828125 -0.265625 50.234375 -0.234375 C 49.648438 -0.203125 49.1875 -0.171875 48.84375 -0.140625 C 48.507812 -0.109375 48.066406 -0.09375 47.515625 -0.09375 L 46.21875 -0.09375 C 34.132812 0.457031 26.398438 0.734375 23.015625 0.734375 C 12.847656 0.734375 7.765625 -0.679688 7.765625 -3.515625 C 7.640625 -9.242188 7.578125 -14.695312 7.578125 -19.875 C 7.578125 -36.945312 8.132812 -51.148438 9.25 -62.484375 C 10.539062 -64.515625 14.296875 -65.6875 20.515625 -66 C 24.398438 -66.25 27.820312 -66.375 30.78125 -66.375 Z M 30.78125 -66.375 "/></g></g></g></svg>